<?xml version="1.0" standalone="no"?><!DOCTYPE svg PUBLIC "-//W3C//DTD SVG 1.1//EN" "http://www.w3.org/Graphics/SVG/1.1/DTD/svg11.dtd"><svg t="1748281540433" class="icon" viewBox="0 0 1024 1024" version="1.1" xmlns="http://www.w3.org/2000/svg" p-id="12633" xmlns:xlink="http://www.w3.org/1999/xlink" width="256" height="256"><path d="M184.32 0h655.36Q1024 0 1024 184.32v655.36Q1024 1024 839.68 1024H184.32Q0 1024 0 839.68V184.32Q0 0 184.32 0z" fill="#fa2105" p-id="12634" data-spm-anchor-id="a313x.search_index.0.i14.4b523a81i1ubCn" class="selected"></path><path d="M527.616 849.439a373.606 373.606 0 0 1-162.55-39.004C252.703 755.272 185.057 634.143 192.512 501.76c7.414-130.345 85.105-237.466 202.752-279.552a35.85 35.85 0 0 1 24.156 67.512c-107.663 38.492-150.815 136.868-155.3 216.136-5.867 103.516 46.08 197.796 132.342 240.138 124.693 60.304 216.914 22.354 260.823-5.642 59.802-38.164 97.864-100.014 96.952-157.553-1.024-63.723-24.064-120.995-63.273-157.143a145.408 145.408 0 0 0-65.587-35.287q2.827 9.77 5.643 19.323c13.383 45.64 24.944 85.054 25.6 114.401a134.267 134.267 0 0 1-37.694 97.762 139.11 139.11 0 0 1-100.66 40.458 140.104 140.104 0 0 1-100.474-42.24 169.124 169.124 0 0 1-46.285-122.767c1.198-85.126 80.118-153.283 162.816-175.104a324.803 324.803 0 0 1-6.717-67.052 92.058 92.058 0 0 1 69.181-91.812C643 150.804 701.235 168.53 721.45 201.226a35.84 35.84 0 0 1-11.704 49.316 35.84 35.84 0 0 1-49.265-11.653 62.341 62.341 0 0 0-48.456-5.212c-4.321 1.71-12.36 4.905-12.769 23.101a270.879 270.879 0 0 0 6.738 58.512 217.498 217.498 0 0 1 133.56 57.65c53.576 49.388 85.043 125.461 86.354 208.712 1.29 81.859-49.766 167.865-130.048 219.136a310.15 310.15 0 0 1-168.243 48.65z m23.654-457.554c-56.77 15.667-107.468 63.037-108.073 106.424a98.304 98.304 0 0 0 25.652 71.434 68.045 68.045 0 0 0 49.367 20.88 67.246 67.246 0 0 0 49.449-18.944 63.191 63.191 0 0 0 17.234-46.08c-0.41-19.794-11.725-58.368-22.672-95.693-3.615-12.421-7.352-25.15-10.957-38.021z" fill="#FFFFFF" p-id="12635"></path></svg>